Coordinates
version=1
nRows=8
nColumns=46
inDegrees=yes

Units are S.I. units (second, meters, Newtons, ...)
Angles are in degrees.

endheader
time	pelvis_tilt	pelvis_list	pelvis_rotation	pelvis_tx	pelvis_ty	pelvis_tz	bb_angle	bb_tx	bb_ty	bb_tz	hip_flexion_r	hip_adduction_r	hip_rotation_r	knee_angle_r	knee_angle_r_beta	ankle_angle_r	subtalar_angle_r	mtp_angle_r	crank_angle_r	hip_flexion_l	hip_adduction_l	hip_rotation_l	knee_angle_l	knee_angle_l_beta	ankle_angle_l	subtalar_angle_l	mtp_angle_l	crank_angle_l	lumbar_extension	lumbar_bending	lumbar_rotation	arm_flex_r	arm_add_r	arm_rot_r	elbow_flex_r	pro_sup_r	wrist_flex_r	wrist_dev_r	arm_flex_l	arm_add_l	arm_rot_l	elbow_flex_l	pro_sup_l	wrist_flex_l	wrist_dev_l
      2.50500000	    -27.32507378	     -3.35511555	     -3.38953126	      0.31798171	      1.13894985	     -0.22797097	      0.00000000	      0.50000000	      0.00000000	      0.25000000	     65.76101240	      2.21183659	     -3.24835263	     63.23397969	      1.10364114	     13.37585874	    -11.88675751	      0.00000000	      0.00000000	     52.88386044	     -8.24060320	      5.79846975	     75.69225375	      1.32107905	     -9.74412523	    -16.13551559	      0.00000000	      0.00000000	    -58.41277095	     12.58846962	      2.66716866	     63.66198575	     -3.82157381	     32.63283510	     71.86550656	     48.19097995	      0.00000000	      0.00000000	     44.69098994	    -29.00697679	     10.26346551	     77.32656065	     47.19737833	      0.00000000	      0.00000000
      2.51000000	    -27.00444869	     -3.08718729	     -3.21386005	      0.31928139	      1.13780224	     -0.22856664	      0.00000000	      0.50000000	      0.00000000	      0.25000000	     64.95577323	      1.96262449	     -2.96074969	     62.49447236	      1.09073431	     12.96994909	    -11.80764725	      0.00000000	      0.00000000	     53.22177505	     -7.92336884	      5.74587635	     77.14360101	      1.34640983	     -9.60831177	    -16.28220040	      0.00000000	      0.00000000	    -58.37303104	     12.48067160	      2.31880004	     63.34196387	     -3.91867585	     32.56285372	     71.86746275	     48.19783344	      0.00000000	      0.00000000	     44.61799678	    -28.89095868	     10.35937927	     77.26071753	     47.20278661	      0.00000000	      0.00000000
      2.51500000	    -26.60369035	     -3.08459258	     -2.92205017	      0.32057318	      1.13665103	     -0.22926566	      0.00000000	      0.50000000	      0.00000000	      0.25000000	     64.03405961	      1.75899333	     -3.02809659	     61.71189511	      1.07707576	     12.16292695	    -12.28575453	      0.00000000	      0.00000000	     53.56708635	     -7.72695744	      5.98340134	     78.69143566	      1.37342465	     -9.05541788	    -15.73881453	      0.00000000	      0.00000000	    -58.44122678	     12.66769580	      2.27701277	     62.61736639	     -3.91103265	     31.91606492	     72.16635035	     48.25298457	      0.00000000	      0.00000000	     44.73243703	    -28.74451908	     10.76156914	     76.80423458	     47.20640741	      0.00000000	      0.00000000
      2.52000000	    -26.27291313	     -2.78378772	     -2.76466267	      0.32191672	      1.13536409	     -0.22981482	      0.00000000	      0.50000000	      0.00000000	      0.25000000	     63.22578946	      1.49816939	     -2.70864197	     61.02848526	      1.06514801	     11.68124423	    -12.09821912	      0.00000000	      0.00000000	     53.91152626	     -7.42098555	      5.86634966	     80.13246218	      1.39857530	     -9.03971846	    -15.70609520	      0.00000000	      0.00000000	    -58.38654633	     12.47144797	      1.94077591	     62.29526246	     -4.01692551	     31.86044173	     72.14500327	     48.25668850	      0.00000000	      0.00000000	     44.67474813	    -28.60887190	     10.88106642	     76.72186352	     47.21040558	      0.00000000	      0.00000000
      2.52500000	    -25.78624211	     -2.65008603	     -2.49944848	      0.32329361	      1.13436576	     -0.23060046	      0.00000000	      0.50000000	      0.00000000	      0.25000000	     62.21300663	      1.19477238	     -2.70890100	     60.28569279	      1.05218383	     10.84712107	    -12.39741101	      0.00000000	      0.00000000	     54.14668518	     -7.15527161	      5.97628745	     81.60650146	      1.42430214	     -8.59918825	    -15.16490454	      0.00000000	      0.00000000	    -58.47665473	     12.48008514	      1.82712114	     61.59544787	     -4.09438037	     31.41218827	     72.25996145	     48.28483700	      0.00000000	      0.00000000	     44.85327558	    -28.39227683	     11.32282119	     76.19326401	     47.19293141	      0.00000000	      0.00000000
      2.53000000	    -25.40660951	     -2.37461543	     -2.34574795	      0.32452265	      1.13305805	     -0.23121494	      0.00000000	      0.50000000	      0.00000000	      0.25000000	     61.36167285	      0.92650175	     -2.46845072	     59.62592523	      1.04066871	     10.41379883	    -12.30679463	      0.00000000	      0.00000000	     54.48606530	     -6.89311014	      5.85984571	     83.06304325	      1.44972359	     -8.55411342	    -15.18887434	      0.00000000	      0.00000000	    -58.43481435	     12.28772315	      1.48072840	     61.25976997	     -4.20456125	     31.31684042	     72.24059289	     48.28715917	      0.00000000	      0.00000000	     44.84340936	    -28.24636477	     11.48780538	     76.04334702	     47.19072432	      0.00000000	      0.00000000
      2.53500000	    -24.84333115	     -2.16753666	     -2.07146814	      0.32578773	      1.13210217	     -0.23194574	      0.00000000	      0.50000000	      0.00000000	      0.25000000	     60.27068303	      0.57995272	     -2.43126922	     58.91056406	      1.02818331	      9.47877919	    -12.94568543	      0.00000000	      0.00000000	     54.65010211	     -6.60470866	      5.86432658	     84.48566328	      1.47455299	     -8.17209040	    -14.59417393	      0.00000000	      0.00000000	    -58.47694692	     12.18037901	      1.90271167	     60.16454662	     -4.65357220	     29.83679398	     72.88259584	     48.47435977	      0.00000000	      0.00000000	     46.19262407	    -27.41156361	     13.45156200	     73.79990818	     47.13929572	      0.00000000	      0.00000000
      2.54000000	    -24.40650802	     -1.90440129	     -1.91556155	      0.32712959	      1.13092483	     -0.23256428	      0.00000000	      0.50000000	      0.00000000	      0.25000000	     59.31698809	      0.27103265	     -2.29679664	     58.22665592	      1.01624686	      8.90400391	    -12.83181405	      0.00000000	      0.00000000	     54.95367719	     -6.41467245	      5.68387244	     85.89273234	      1.49911098	     -8.15833415	    -14.40683280	      0.00000000	      0.00000000	    -58.48134178	     11.98948326	      1.56973780	     59.70949976	     -4.78995569	     29.81945498	     72.82849982	     48.49096181	      0.00000000	      0.00000000	     46.21361356	    -27.31288143	     13.58718432	     73.63906596	     47.14117176	      0.00000000	      0.00000000
